# xmcd
#
# Track frame offsets:
#	150
#	13920
#	27787
#	44232
#	59882
#	75881
#	90737
#	104737
#	118467
#	127688
#	149873
#	166095
#	184107
#	200092
#	211187
#	230787
#	240746
#	251945
#	265819
#	279456
#
# Disc length: 3860 seconds
#
# Revision: 1
# Processed by: cddbd v1.5.2PL0 Copyright (c) Steve Scherf et al.
# Submitted via: audiograbber 1.83.01
#
DISCID=380f1214
DTITLE=larry gatlin - the pilgrim (1973) rain rainbow (1974)
DYEAR=2016
DGENRE=Country
TTITLE0=Sweet Becky Walker 
TTITLE1=My mind's gone to Memphis 
TTITLE2=Bitter they are, harder they fall 
TTITLE3=The heart 
TTITLE4=Try to win a friend 
TTITLE5=It must have rained in heaven 
TTITLE6=To make me wanna stay home 
TTITLE7=Light at the end of the darkness 
TTITLE8=Dig a little deeper 
TTITLE9=Penny Annie 
TTITLE10=Rain 
TTITLE11=Found and lost 
TTITLE12=Those also love 
TTITLE13=Healin' sunshine 
TTITLE14=Help me 
TTITLE15=Delta dirt 
TTITLE16=Jannie 
TTITLE17=Takin' my chance on you 
TTITLE18=Love 
TTITLE19=Rainbow (Runnin' through my mind) 
EXTD=
EXTT0=
EXTT1=
EXTT2=
EXTT3=
EXTT4=
EXTT5=
EXTT6=
EXTT7=
EXTT8=
EXTT9=
EXTT10=
EXTT11=
EXTT12=
EXTT13=
EXTT14=
EXTT15=
EXTT16=
EXTT17=
EXTT18=
EXTT19=
PLAYORDER=
